<?xml version="1.0" encoding="UTF-8"?><svg id="Capa_1" xmlns="http://www.w3.org/2000/svg" viewBox="0 0 202.82 56.11"><defs><style>.cls-1{fill:#fff;stroke-width:0px;}</style></defs><path class="cls-1" d="M2.38,35.04c-.66.66-.88,1.46-.65,2.26.21.8.84,1.53,1.66,1.97.82.45,1.85.58,2.95.5h0c.13-.01.25.09.26.22,0,.1-.04.18-.12.23-.52.3-1.11.48-1.73.55-.62.07-1.28,0-1.9-.21-1.24-.42-2.34-1.44-2.72-2.82-.19-.68-.17-1.44.07-2.12.12-.34.3-.65.51-.94.22-.28.44-.51.71-.73.52-.43,1.21-.73,1.89-.78.68-.06,1.32.07,1.89.26.58.19,1.11.45,1.62.73.51.28.99.58,1.46.9.94.63,1.85,1.3,2.77,1.92.92.62,1.86,1.22,2.85,1.69.49.23,1,.43,1.52.55.51.13,1.04.18,1.53.12.26-.03.49.15.52.41.03.26-.15.49-.41.52-.02,0-.05,0-.07,0h0c-.63-.02-1.22-.15-1.78-.34-.56-.19-1.08-.43-1.6-.69-1.02-.53-1.97-1.13-2.92-1.74-.95-.6-1.89-1.21-2.85-1.76-.96-.54-1.94-1.06-2.94-1.29-.5-.11-.99-.15-1.42-.05-.43.09-.79.31-1.1.63ZM5.35,27.93c-.02-.13-.01-.28-.01-.41.02-.13.04-.27.07-.4.04-.12.07-.24.14-.37.22-.51.74-.92,1.23-1.05.49-.15.95-.13,1.37-.08.84.13,1.58.46,2.24.91.33.23.64.48.9.79.01.01.02.03.04.05.02-.29.06-.58.13-.86.17-.65.44-1.32,1.02-1.84.15-.13.32-.24.51-.32.19-.08.41-.12.62-.14.21,0,.42.02.61.08.1.03.19.07.28.1.1.06.21.11.31.2.21.16.33.4.4.62.02.11.05.22.06.32v.15s0,.14,0,.14c-.01.38-.09.71-.17,1.04-.17.64-.39,1.24-.59,1.83-.2.59-.4,1.18-.55,1.78-.15.59-.27,1.19-.29,1.79-.04.6.06,1.19.26,1.75h0s0,.05,0,.07c0,0,0,0,0,0,0,.1-.05.2-.15.23-.07.02-.14.01-.2-.02,0,0-.01,0-.02-.01-.01,0-.02-.02-.03-.03,0,0-.02-.01-.02-.02h0c-.41-.54-.97-.96-1.57-1.33-.6-.37-1.23-.7-1.87-1.03-.64-.33-1.29-.66-1.95-1.02-.33-.18-.65-.38-.97-.6-.32-.22-.64-.46-.94-.75-.3-.29-.6-.66-.77-1.16-.05-.12-.06-.26-.09-.39ZM6.72,27.63s0,.09,0,.13c.02.04,0,.09.03.14.06.19.21.42.42.64.42.45,1.01.84,1.6,1.23.59.39,1.22.76,1.84,1.16.62.4,1.24.81,1.82,1.29.21.17.41.36.6.56-.03-.17-.04-.35-.05-.52-.04-.67.04-1.33.17-1.97.25-1.28.73-2.49,1.04-3.66.07-.29.13-.58.14-.83.01-.13,0-.24-.02-.33-.03-.08-.05-.14-.1-.17-.02-.03-.06-.04-.09-.06-.06-.02-.11-.05-.17-.07-.11-.04-.22-.05-.32-.06-.1,0-.21.02-.31.05-.1.04-.2.1-.3.17-.19.15-.37.36-.51.6-.15.24-.27.5-.37.78-.1.28-.17.56-.21.86-.04.29-.06.59-.01.85h0c.02.14-.06.26-.19.29-.09.02-.18-.03-.23-.1,0,0,0,0,0,0l-.02-.02c-.42-.49-1.03-.82-1.63-1.08-.61-.26-1.26-.45-1.86-.51-.29-.02-.59-.01-.79.06-.21.07-.31.15-.39.31-.02.04-.03.1-.06.14-.02.05-.01.09-.03.14ZM18.35,42.39c-.46.69-.97,1.31-1.52,1.9-.56.59-1.17,1.13-1.85,1.58-.34.22-.7.43-1.08.61-.19.08-.37.18-.59.25-.21.07-.44.11-.68.13-.47.02-.96-.11-1.37-.37-.41-.25-.75-.62-.98-1.05-.22-.43-.36-.94-.29-1.48.05-.54.41-1.1.88-1.38.11-.08.24-.13.36-.19.12-.04.25-.09.37-.11.12-.03.24-.05.36-.06.12-.01.24-.02.35-.02.24,0,.43.02.65.04.21.02.41.04.62.07.82.11,1.58.3,2.29.3.36,0,.72-.05,1.07-.15.35-.09.7-.24,1.05-.39.07-.06.18-.08.26-.03.11.06.16.2.09.32,0,0,0,.01-.01.02ZM17.38,43.04c-.06.03-.12.06-.19.09-.39.17-.82.3-1.26.35-.44.05-.87.04-1.28.01l-1.19-.1c-.19-.02-.38-.03-.57-.04-.19,0-.39-.02-.55,0-.33.02-.64.08-.84.22-.11.06-.18.15-.24.24-.06.09-.1.2-.12.33-.04.25,0,.56.11.85.22.58.72,1.1,1.38,1.18.33.05.67-.04,1.04-.17.36-.13.71-.3,1.04-.49.67-.39,1.28-.89,1.82-1.46.3-.31.57-.65.83-1ZM15.12,34.78c.29-.55.75-.86,1.13-1.12.39-.26.76-.47.96-.77h0s.01-.04.02-.06c.05-.12.19-.17.31-.12.1.04.16.16.14.26h0c-.08.37.08.8.21,1.25.13.45.29.96.22,1.54-.01.07-.03.14-.04.22-.02.07-.05.14-.08.21-.06.13-.12.25-.21.37-.17.24-.42.43-.67.55-.25.12-.49.18-.67.25-.14.06-.23.13-.3.24-.02.04-.04.08-.06.13,0,.01-.01.02-.02.03-.06.1-.19.15-.3.1-.1-.05-.16-.16-.13-.27,0-.01,0-.03.01-.04.02-.19-.02-.3-.12-.44-.1-.15-.26-.33-.39-.58-.14-.25-.22-.56-.22-.87,0-.15.02-.3.05-.44.04-.15.09-.3.16-.44ZM15.9,36.18c.06.18.18.38.27.65,0,0,0,.01,0,.02.24-.14.46-.21.63-.31.17-.1.3-.22.4-.37.05-.07.1-.16.14-.25.01-.04.03-.08.04-.12l.03-.13c.06-.37-.04-.81-.15-1.27-.03-.15-.07-.31-.09-.48-.14.15-.27.28-.41.41-.35.31-.66.6-.81.88-.04.07-.06.15-.09.22-.02.09-.04.17-.04.25-.02.17,0,.31.07.49ZM16.08,24.31c-.09-.5.12-.81.28-1.04.11-.15.16-.23.15-.32-.01-.04-.02-.09-.03-.13,0,0,0-.01,0-.02-.01-.11.04-.21.15-.25.12-.04.26.02.3.14,0,.01,0,.02,0,.03h0c.05.09.08.1.19.14.1.04.26.07.44.15.18.07.36.21.49.38.07.09.11.18.16.27.04.1.07.21.08.32.04.43-.11.77-.22,1.05-.12.28-.24.54-.23.73v.03s0,.02,0,.03c0,0,0,0,0,0-.01.12-.1.21-.22.22-.1,0-.19-.05-.23-.14,0-.01,0-.03-.01-.04-.06-.19-.28-.36-.51-.54-.33-.25-.7-.54-.79-1ZM17.6,26.67c-.23.38-.23.85-.21,1.32.03.47.09.95.14,1.45.04.5.07,1.01-.02,1.55-.05.27-.14.54-.3.8-.16.25-.4.47-.67.57-.12.05-.26-.01-.31-.14-.04-.1,0-.21.08-.27h0c.33-.26.46-.63.51-1.07.05-.44.03-.92.01-1.4-.02-.49-.04-.99,0-1.5.02-.26.06-.52.15-.78.09-.25.23-.51.44-.69.05-.04.12-.03.17.02.03.04.03.09,0,.14h0ZM16.54,24.23c.05.29.33.5.61.72.08.06.15.12.23.18.02-.11.05-.21.08-.3.09-.3.16-.56.14-.76,0-.05-.02-.09-.03-.13-.02-.05-.04-.1-.07-.13-.05-.08-.12-.14-.22-.2-.1-.06-.25-.11-.42-.22,0,0,0,0,0,0-.04.06-.07.11-.11.17-.14.2-.26.38-.21.69ZM16.74,19.31c-.02-.34-.05-.69,0-1.08.05-.39.32-.87.76-1.04.21-.08.4-.1.52-.13.13-.03.16-.02.24-.11h0s0-.02.01-.03c.06-.11.2-.16.32-.1.1.05.14.17.11.27,0,0,0,.01,0,.02,0,.04-.02.09-.04.14,0,.08.04.17.12.32.13.25.32.59.16,1.08-.14.44-.61.77-1.05,1.08-.3.21-.62.43-.71.62,0,.02-.01.03-.02.05-.06.11-.2.16-.32.1-.1-.05-.15-.16-.12-.27v-.02c.07-.23.03-.57,0-.9ZM18.8,49.8c-.13.06-.27.09-.41.09-.49,0-1-.35-1.27-.92-.35-.73-.16-1.55.42-1.83.58-.28,1.34.09,1.69.83.16.34.22.72.15,1.06-.07.36-.28.64-.57.78ZM17.35,19.54c.09-.07.19-.13.28-.2.37-.26.78-.55.88-.84.1-.3,0-.49-.13-.71-.03-.05-.06-.11-.08-.17-.02,0-.04.02-.06.03-.2.08-.34.11-.44.17-.19.1-.32.26-.37.53-.06.27-.06.6-.07.94,0,.08,0,.16,0,.25ZM18.91,48.93c.05-.24,0-.51-.11-.76-.19-.39-.54-.65-.85-.65-.08,0-.15.02-.21.05-.34.16-.44.72-.2,1.21.23.49.72.77,1.06.6.16-.07.27-.23.31-.45ZM20.29,51.93c0,.53-.36.97-.8.97s-.8-.43-.8-.97.36-.97.8-.97.8.43.8.97ZM36.21,55.78c-.24.32-.67.42-1.02.25-.81-.4-1.54-.99-2.1-1.69-.58-.69-1-1.47-1.34-2.26-.34-.79-.58-1.61-.77-2.42-.19-.81-.33-1.63-.41-2.44-.19-1.62-.24-3.24-.21-4.83.01-.8.04-1.59.07-2.39.04-.79.1-1.58.16-2.37.13-1.57.28-3.13.47-4.68l.58-4.61c.19-1.52.38-3.04.43-4.51.03-.73.02-1.46-.06-2.12-.04-.33-.11-.64-.19-.9-.09-.26-.2-.46-.29-.56s-.17-.15-.36-.17h-.07s-.03,0-.04,0c-.03,0-.06,0-.1.01-.07.02-.16.05-.26.1-.2.11-.42.31-.63.54-.21.24-.41.52-.6.81-.75,1.2-1.34,2.61-1.85,4.04-1.02,2.87-1.78,5.88-2.43,8.9-.64,3.03-1.17,6.08-1.59,9.15-.21,1.53-.39,3.07-.52,4.61-.07.77-.12,1.54-.15,2.3-.01.38-.02.76-.02,1.13,0,.19.01.37.02.54,0,.09.02.17.03.25.01.08.03.15.04.17h0c.17.37.06.82-.29,1.04-.36.24-.84.15-1.1-.19-.13-.17-.26-.34-.38-.52-.1-.17-.19-.35-.29-.53-.09-.18-.15-.35-.23-.53-.03-.09-.07-.18-.1-.26l-.08-.26c-.24-.7-.38-1.4-.51-2.09-.25-1.39-.38-2.76-.48-4.13-.18-2.74-.2-5.45-.21-8.15,0-1.35.02-2.7.02-4.04v-4c0-.66,0-1.33,0-1.98,0-.66,0-1.31-.03-1.96-.03-1.29-.1-2.58-.26-3.72v-.08c-.12-.77.41-1.49,1.18-1.6.69-.1,1.33.32,1.54.95.48,1.47.65,2.88.77,4.28.05.7.09,1.39.11,2.08.01.69.02,1.37.02,2.05,0,1.37-.07,2.72-.13,4.07-.07,1.35-.13,2.7-.2,4.04s-.14,2.68-.2,4.01c-.07,1.33-.11,2.66-.13,3.99,0,.3,0,.6,0,.9.08-.85.17-1.7.26-2.55.35-3.11.8-6.21,1.36-9.3.57-3.08,1.22-6.16,2.18-9.2.49-1.52,1.04-3.03,1.89-4.5.22-.37.46-.73.75-1.09.29-.36.63-.71,1.09-1.02.23-.15.5-.29.8-.38.15-.05.31-.08.48-.1.08-.01.17-.01.25-.02.08,0,.15,0,.22,0,.59.01,1.28.25,1.76.68.49.42.77.92.98,1.38.2.47.32.91.42,1.35.19.87.26,1.71.31,2.53.08,1.64.03,3.24-.06,4.82-.18,3.16-.57,6.24-.89,9.3-.08.76-.16,1.53-.22,2.29-.07.76-.13,1.52-.18,2.28-.05.76-.07,1.51-.1,2.26s-.02,1.5,0,2.24c.03.74.08,1.47.18,2.19s.24,1.42.43,2.09c.39,1.34,1.04,2.54,2.11,3.33h.02c.37.28.44.8.17,1.17ZM19.82,51.93c0-.27-.15-.5-.33-.5s-.33.23-.33.5.15.5.33.5.33-.23.33-.5Z"/><path class="cls-1" d="M53.52,43.21c-.44.49-.93.94-1.45,1.35-.52.41-1.07.78-1.66,1.1-.91.5-1.89.88-2.93,1.11-.01.06-.02.12-.04.17-.16.67-.39,1.35-.72,2.01-.33.65-.77,1.3-1.39,1.84-.61.54-1.39.97-2.22,1.15-.41.09-.84.14-1.24.14-.4,0-.82-.03-1.24-.12-.84-.17-1.67-.59-2.33-1.18-.65-.59-1.14-1.32-1.45-2.06-.16-.37-.28-.75-.38-1.13-.09-.38-.15-.76-.19-1.13-.08-.75-.06-1.49.02-2.22.18-1.45.66-2.83,1.4-4.07.27-.45.58-.88.93-1.28,0-.02,0-.05,0-.07.03-.71.17-1.42.46-2.11.29-.68.77-1.37,1.51-1.79.18-.1.37-.19.57-.25.1-.04.19-.05.28-.07.09-.02.18-.04.28-.06.37-.06.77-.08,1.16-.03.79.1,1.51.49,2.05.98.55.49.96,1.07,1.29,1.68.33.6.59,1.23.79,1.86.41,1.27.63,2.58.72,3.9.04.68.04,1.37,0,2.07.67-.16,1.34-.4,1.99-.69.53-.25,1.05-.52,1.55-.85.5-.32.97-.69,1.42-1.07h0c.25-.22.62-.19.83.06.19.23.18.56-.01.78ZM45.21,46.93c-.1-.01-.19-.02-.29-.04-.09-.01-.19-.04-.29-.06l-.26-.06c-.68-.18-1.34-.45-1.96-.81-1.13-.66-2.07-1.64-2.71-2.76-.09.45-.15.91-.18,1.36-.04.52-.02,1.04.03,1.54.03.25.07.49.13.72.05.23.11.45.19.66.16.41.35.78.6,1.06.24.28.54.49.91.64.37.14.86.21,1.25.17.2-.02.4-.06.59-.13.19-.07.38-.17.55-.3.59-.42,1.08-1.15,1.43-1.98ZM45.62,39.44c-.16-.57-.37-1.11-.63-1.62-.27-.5-.59-.95-.98-1.3-.38-.35-.83-.55-1.29-.6-.23-.03-.47-.02-.71.04-.06,0-.12.03-.18.05-.06.02-.13.03-.17.05-.1.04-.19.08-.28.14-.34.22-.61.6-.78,1.06.06-.03.11-.07.16-.09.46-.24,1.04-.07,1.28.4.19.36.13.78-.12,1.06l-.04.04c-.52.59-.94,1.23-1.29,1.92.14.5.33.98.58,1.43.52.97,1.27,1.78,2.19,2.35.46.29.96.5,1.49.66l.2.06c.06.01.11.03.17.04.12.02.24.04.37.05.05,0,.09,0,.14,0,.16-.73.25-1.48.27-2.24.04-1.18-.09-2.38-.4-3.51Z"/><path class="cls-1" d="M64.5,42.9c-.04.31-.32.53-.63.5h0c-1.81-.15-3.63-.11-5.33.32.1.16.2.33.3.51.07.14.14.29.2.44.06.16.12.32.17.49.1.33.16.66.19.99.06.66,0,1.31-.15,1.91-.15.6-.37,1.16-.66,1.68-.59,1.03-1.39,1.95-2.52,2.56-.56.3-1.23.52-1.95.52-.36,0-.73-.06-1.07-.17-.41-.13-.79-.37-1.07-.66-.57-.59-.8-1.27-.89-1.89-.09-.63-.05-1.23.06-1.8.23-1.14.77-2.15,1.47-2.99.48-.57,1.03-1.06,1.63-1.47-.26-.2-.54-.41-.82-.63-.38-.3-.79-.61-1.19-.98-.4-.37-.82-.79-1.19-1.32-.37-.52-.69-1.18-.83-1.91-.07-.36-.09-.73-.06-1.08.01-.18.03-.35.06-.52.01-.08.03-.18.06-.28.02-.1.05-.2.08-.29.13-.39.33-.77.59-1.09.26-.32.57-.58.89-.78.65-.4,1.33-.57,1.97-.61.65-.04,1.29.04,1.89.23.6.19,1.18.49,1.67.92.49.43.89.98,1.13,1.58.24.6.32,1.24.28,1.82-.03.52-.48.91-1,.88-.46-.03-.82-.38-.87-.83v-.03c-.09-.75-.43-1.3-.96-1.63-.52-.34-1.24-.48-1.85-.35-.3.06-.57.18-.72.32-.16.14-.2.26-.21.39,0,.02,0,.04,0,.06v.08c0,.07,0,.14,0,.2.01.13.04.24.07.35.07.22.2.43.4.68.4.49,1.08,1.04,1.82,1.62.65.52,1.37,1.07,2.06,1.79.18-.04.36-.09.53-.12,2.01-.4,4.02-.34,5.97-.06.32.05.54.34.5.66ZM56.39,46.51c-.02-.15-.07-.28-.12-.41-.02-.07-.05-.13-.08-.19-.04-.07-.07-.14-.11-.2-.13-.23-.31-.45-.52-.68-.58.41-1.09.89-1.5,1.45-.49.67-.82,1.43-.92,2.19-.05.38-.04.75.03,1.07.07.32.22.57.35.65.06.05.11.06.16.07.12.02.23.03.35.01.24-.03.51-.13.77-.31.53-.36,1.01-.99,1.3-1.66.29-.67.39-1.4.29-1.98Z"/><path class="cls-1" d="M67.79,37.15c-.66.66-.88,1.46-.65,2.26.21.8.84,1.53,1.66,1.97.83.45,1.85.58,2.95.5h0c.13-.01.25.09.26.22,0,.1-.04.18-.12.23-.52.3-1.11.48-1.73.55-.62.07-1.28,0-1.9-.21-1.24-.42-2.34-1.44-2.72-2.82-.19-.68-.17-1.44.07-2.12.12-.34.3-.65.51-.94.22-.28.44-.51.71-.73.52-.44,1.21-.73,1.89-.78.68-.06,1.32.07,1.89.26.58.19,1.11.45,1.62.73.51.28.99.58,1.46.9.94.63,1.85,1.3,2.77,1.92.92.62,1.86,1.22,2.85,1.69.49.23,1,.43,1.52.55.51.13,1.04.18,1.53.12.26-.03.49.15.52.41.03.26-.15.49-.41.52-.02,0-.05,0-.07,0h0c-.63-.02-1.22-.15-1.78-.34-.56-.19-1.08-.43-1.6-.69-1.02-.53-1.97-1.13-2.92-1.74-.95-.6-1.89-1.21-2.85-1.76-.96-.54-1.94-1.06-2.94-1.29-.5-.11-.99-.15-1.42-.05-.43.09-.79.31-1.1.63ZM71.28,32.43c-.02-.14-.01-.28-.01-.41.02-.13.04-.27.07-.4.04-.12.08-.24.14-.37.22-.51.74-.92,1.23-1.05.49-.15.95-.13,1.37-.08.84.13,1.58.46,2.24.91.33.23.64.48.9.79.01.02.03.03.04.05.02-.29.06-.58.13-.86.17-.65.44-1.32,1.02-1.84.15-.13.32-.24.51-.32.19-.08.41-.12.62-.14.21,0,.42.02.61.08.1.03.19.07.28.1.1.06.21.1.31.2.21.16.33.4.4.62.02.11.05.22.06.32v.15s0,.14,0,.14c-.01.38-.09.71-.18,1.03-.17.64-.39,1.24-.59,1.83-.2.59-.4,1.18-.55,1.78-.15.59-.27,1.19-.29,1.79-.04.6.06,1.19.26,1.75h0s0,.05,0,.07c0,0,0,0,0,0,0,.1-.05.2-.15.23-.07.02-.14.01-.2-.02,0,0-.01,0-.02,0-.01,0-.02-.02-.03-.03,0,0-.02-.01-.02-.02h0c-.41-.54-.97-.96-1.56-1.33-.6-.37-1.23-.7-1.87-1.03-.64-.33-1.29-.66-1.95-1.02-.33-.18-.65-.38-.97-.6-.32-.22-.64-.46-.94-.75-.3-.29-.6-.66-.77-1.16-.05-.12-.06-.26-.09-.39ZM72.65,32.13s0,.09,0,.13c.02.04,0,.09.03.14.06.19.21.42.42.64.42.45,1.01.84,1.6,1.23.59.39,1.22.76,1.84,1.16.62.4,1.24.81,1.82,1.29.21.17.41.36.6.56-.03-.17-.04-.35-.05-.52-.04-.67.04-1.33.17-1.97.25-1.28.73-2.49,1.04-3.66.07-.29.13-.58.14-.83.01-.13,0-.24-.02-.33-.03-.08-.05-.14-.1-.17-.02-.03-.06-.04-.09-.06-.06-.02-.11-.05-.17-.07-.11-.04-.22-.05-.32-.06-.1,0-.21.02-.31.05-.1.04-.2.1-.3.17-.19.15-.37.36-.51.6-.15.24-.27.5-.37.78-.1.28-.17.56-.21.86-.04.29-.06.59-.01.85h0c.02.14-.06.26-.19.29-.09.02-.18-.03-.23-.1,0,0,0,0,0,0l-.02-.02c-.42-.49-1.03-.82-1.63-1.08-.61-.26-1.26-.45-1.86-.51-.29-.02-.59-.01-.79.06-.21.07-.31.15-.39.31-.02.04-.03.1-.06.14-.02.05-.01.09-.03.14ZM83.33,43.91c-.46.69-.97,1.31-1.52,1.9-.56.59-1.17,1.13-1.85,1.58-.34.22-.7.43-1.08.61-.19.08-.37.18-.59.25-.21.07-.44.11-.68.13-.47.02-.96-.11-1.37-.37-.41-.25-.75-.62-.98-1.05-.22-.43-.36-.94-.29-1.48.05-.54.41-1.1.88-1.38.11-.08.24-.13.36-.19.12-.04.25-.09.37-.11.12-.03.25-.05.36-.06.12-.01.24-.02.35-.02.24,0,.43.02.65.04.21.02.41.04.62.07.82.11,1.58.3,2.29.3.36,0,.72-.05,1.07-.15.35-.09.7-.24,1.05-.39.07-.06.18-.08.26-.03.11.06.16.2.09.32,0,0,0,.01-.01.02ZM82.36,44.56c-.06.03-.12.06-.19.09-.39.17-.82.3-1.26.35-.44.05-.87.04-1.28.01l-1.19-.1c-.19-.02-.38-.03-.57-.04-.19,0-.39-.02-.55,0-.33.02-.64.08-.84.22-.11.06-.18.15-.24.24-.06.09-.1.2-.12.33-.04.25,0,.56.11.85.22.58.72,1.1,1.38,1.18.33.05.67-.04,1.04-.17.36-.13.71-.3,1.04-.49.67-.39,1.28-.89,1.82-1.46.3-.31.57-.65.83-1ZM87.56,40.86c-.03.96-.02,1.92.04,2.88.11,1.83.38,3.66.95,5.31.29.82.66,1.59,1.14,2.23.48.64,1.05,1.12,1.71,1.36.33.12.69.19,1.06.19.37,0,.73-.04,1.07-.16.69-.22,1.34-.73,1.9-1.37.56-.65,1.04-1.42,1.45-2.25.2-.42.39-.84.57-1.27.18-.44.34-.88.5-1.33h0c.11-.31.45-.47.75-.36.28.1.43.38.38.66-.18.97-.42,1.95-.76,2.91-.35.96-.78,1.91-1.42,2.79-.63.87-1.49,1.7-2.62,2.17-.56.23-1.17.37-1.77.4-.59.04-1.21-.03-1.8-.2-.59-.17-1.16-.45-1.65-.79-.49-.34-.93-.75-1.3-1.19-.75-.87-1.28-1.84-1.7-2.82-.83-1.97-1.25-4-1.47-6.03-.13-1.2-.19-2.39-.18-3.59-.37-.16-.72-.36-1.04-.6-.48-.36-.88-.8-1.21-1.29-.32-.49-.57-1.01-.73-1.55-.34-1.07-.39-2.18-.28-3.24.25-2.12,1.15-4.06,2.39-5.68.24-.31.68-.37.99-.13.3.23.36.65.16.95h0c-1.02,1.52-1.72,3.26-1.83,5.02-.06.87.03,1.74.31,2.51.27.76.73,1.41,1.33,1.83,0-.1.01-.2.02-.3.07-1.01.19-2.01.35-3.01.16-1,.36-1.99.61-2.98.25-.99.54-1.96.9-2.93.35-.96.76-1.91,1.24-2.84.48-.92,1.02-1.82,1.67-2.68.64-.85,1.37-1.66,2.23-2.36.86-.7,1.84-1.3,2.94-1.67.57-.19,1.19-.34,1.89-.32.69,0,1.44.23,2.04.64.3.21.56.45.79.71.22.26.4.53.55.81.3.55.49,1.12.61,1.67.24,1.11.27,2.19.2,3.24-.17,2.1-.72,4.12-1.59,6-.44.94-.96,1.84-1.57,2.7-.61.85-1.33,1.63-2.12,2.33-.39.35-.83.68-1.25.97-.42.29-.85.56-1.29.82-.89.51-1.82.97-2.83,1.32-.73.25-1.51.44-2.32.51ZM81.3,28.56c-.04-.1,0-.21.08-.27h0c.33-.26.46-.63.51-1.07.05-.44.03-.92.01-1.4-.02-.49-.04-.99,0-1.5.02-.26.06-.52.15-.78.09-.25.23-.51.44-.69.05-.04.12-.03.17.02.03.04.04.09,0,.14h0c-.23.39-.23.86-.21,1.32.03.47.09.95.14,1.45.04.5.07,1.01-.02,1.55-.05.27-.14.55-.3.8-.16.25-.4.47-.67.57-.12.05-.26-.01-.31-.14ZM84.21,48.26c.14.35.17.73.08,1.06-.1.35-.32.62-.62.74-.11.05-.23.07-.35.07-.51,0-1.04-.39-1.28-1-.14-.35-.17-.73-.08-1.06.1-.35.32-.62.62-.74.3-.12.64-.08.96.11.29.18.53.47.67.82ZM83.77,48.43c-.1-.26-.27-.47-.48-.6-.12-.07-.24-.11-.36-.11-.06,0-.13.01-.18.03-.16.06-.28.22-.34.43-.06.23-.04.5.06.76.2.5.67.81,1.02.67.16-.06.28-.22.34-.42.06-.23.04-.5-.06-.76ZM83.91,25.56c-.14-.25-.22-.56-.22-.87,0-.15.02-.3.05-.44.04-.15.09-.3.16-.44.29-.55.75-.86,1.13-1.12.39-.26.76-.47.96-.77h0s.01-.04.02-.06c.05-.12.19-.18.31-.12.1.04.16.16.14.26h0c-.08.37.08.8.21,1.25.13.45.29.96.22,1.54-.01.07-.03.14-.04.22-.02.07-.05.14-.08.21-.06.13-.12.25-.21.37-.17.24-.42.43-.67.55-.25.12-.49.18-.67.25-.14.06-.23.13-.3.24-.02.04-.04.08-.06.13,0,0-.01.02-.02.03-.06.1-.19.15-.3.1-.1-.05-.16-.16-.13-.27,0-.01,0-.03.01-.04.02-.19-.02-.3-.12-.44-.1-.15-.26-.33-.39-.58ZM86.15,52.56c0,.53-.36.97-.8.97s-.8-.43-.8-.97.36-.97.8-.97.8.43.8.97ZM84.67,25.21c.06.18.18.38.27.65,0,0,0,.01,0,.02.24-.14.46-.21.63-.31.17-.1.3-.22.4-.37.05-.07.1-.16.14-.25.01-.04.03-.08.04-.12l.03-.13c.06-.37-.04-.8-.15-1.27-.03-.15-.07-.31-.09-.48-.14.15-.27.28-.41.41-.35.31-.66.6-.81.88-.04.07-.06.15-.09.22-.02.09-.04.17-.04.25-.02.17,0,.31.07.49ZM85.68,52.56c0-.27-.15-.5-.33-.5s-.33.23-.33.5.15.5.33.5.33-.23.33-.5ZM86.98,20.42c-.09-.5.12-.81.28-1.04.11-.15.16-.23.15-.32-.01-.04-.02-.09-.03-.13,0,0,0-.01,0-.02-.01-.11.04-.21.15-.25.12-.04.26.02.3.14,0,.01,0,.02,0,.03h0c.05.09.08.1.19.14.1.04.26.07.44.15.18.07.36.21.49.38.07.08.11.18.16.27.04.1.07.21.08.32.04.43-.11.77-.22,1.05-.12.28-.24.54-.23.73v.03s0,.02,0,.03c0,0,0,0,0,0,0,.12-.1.21-.22.22-.1,0-.19-.05-.23-.14,0-.01,0-.03-.01-.04-.06-.19-.28-.36-.51-.54-.33-.25-.7-.54-.79-1ZM87.44,20.34c.05.29.33.5.61.72.08.06.15.12.23.18.02-.11.05-.21.08-.3.09-.3.16-.56.14-.76,0-.05-.02-.09-.03-.13-.02-.05-.04-.1-.07-.13-.05-.08-.12-.14-.22-.2-.1-.06-.25-.11-.42-.22,0,0,0,0,0,0-.04.06-.07.11-.11.17-.14.2-.26.38-.21.68ZM87.68,38.77c.5-.09,1-.23,1.49-.42.82-.31,1.63-.73,2.4-1.21.39-.25.77-.5,1.14-.77.37-.26.71-.53,1.04-.82,1.3-1.19,2.35-2.67,3.12-4.3.76-1.63,1.26-3.41,1.36-5.18.05-.88,0-1.76-.2-2.54-.2-.77-.58-1.44-1-1.66-.1-.06-.21-.1-.33-.13-.11-.03-.24-.04-.38-.04-.27,0-.61.09-.95.23-.72.3-1.4.76-2.01,1.33-1.22,1.14-2.16,2.67-2.92,4.3-.75,1.63-1.33,3.38-1.77,5.17-.22.9-.41,1.8-.57,2.71-.16.91-.27,1.83-.37,2.76-.02.19-.04.38-.05.58ZM89.94,19.95c-.02-.34-.05-.69,0-1.08.05-.39.32-.87.76-1.04.21-.08.4-.1.52-.13.13-.03.16-.02.24-.11h0s0-.02.01-.03c.06-.11.2-.16.32-.1.1.05.14.17.11.27,0,0,0,.01,0,.02,0,.04-.02.09-.04.14,0,.08.04.17.12.32.13.25.32.59.16,1.08-.14.44-.61.77-1.05,1.08-.3.21-.61.43-.71.62,0,.02-.01.04-.02.05-.06.12-.2.16-.32.1-.1-.05-.15-.16-.12-.27v-.02c.06-.23.03-.57,0-.9ZM90.55,20.18c.09-.07.19-.13.28-.2.37-.26.78-.55.88-.84.1-.3,0-.49-.13-.71-.03-.05-.06-.11-.08-.17-.02.01-.04.02-.06.03-.2.08-.34.11-.44.17-.19.1-.32.26-.37.53-.06.27-.06.6-.07.94,0,.08,0,.16,0,.25Z"/><path class="cls-1" d="M119.28,42.89c-.29,1.69-.73,3.37-1.44,4.99-.36.81-.78,1.61-1.39,2.36-.31.37-.66.73-1.11,1.04-.44.31-1.01.55-1.64.6-.31.03-.63,0-.92-.05-.3-.06-.6-.15-.88-.3-.57-.29-1.02-.75-1.34-1.22-.32-.48-.52-.96-.68-1.44-.16-.48-.26-.95-.34-1.41,0,0,0-.01,0-.02-.07.22-.15.45-.23.67-.25.68-.54,1.35-.96,2.02-.21.34-.45.67-.74,1-.3.32-.66.65-1.13.9-.47.25-1.07.43-1.67.41-.15,0-.29-.02-.44-.04-.18-.03-.36-.08-.54-.14-.34-.13-.63-.32-.86-.52-.46-.4-.74-.83-.96-1.23-.22-.4-.37-.79-.5-1.18-.25-.77-.38-1.52-.47-2.26-.09-.74-.11-1.48-.09-2.22s.08-1.47.21-2.21c.12-.73.3-1.47.55-2.2.25-.73.59-1.46,1.06-2.16.48-.69,1.11-1.38,1.98-1.86.43-.23.92-.41,1.39-.49.48-.08,1.01-.09,1.55.03.54.12,1.07.38,1.48.74.42.36.73.82.91,1.29.19.48.26.98.23,1.49-.04.51-.21,1.03-.55,1.47-.31.4-.88.46-1.28.15-.25-.19-.37-.49-.35-.78l.03-.37c0-.13-.01-.29-.06-.45-.05-.16-.14-.32-.24-.44-.1-.12-.22-.21-.33-.25-.11-.04-.21-.05-.34-.05-.23,0-.64.13-.91.32-.29.2-.58.52-.84.95-.52.84-.86,1.99-1.06,3.14-.2,1.17-.27,2.39-.18,3.56.04.58.13,1.16.27,1.67.07.25.15.49.24.68.09.19.19.33.23.37.02.02.01.02-.02.01-.02,0-.03,0-.06,0,.02,0,.04.02.06.02.07.02.14.02.27-.02.26-.08.65-.42.99-.85.35-.43.67-.95.96-1.49.3-.55.57-1.12.83-1.71.52-1.18.97-2.43,1.4-3.66v-.02s.04-.08.07-.12c.23-.66.87-1.12,1.61-1.1.91.03,1.62.79,1.59,1.7,0,.07-.01.14-.02.21-.13.83-.26,1.62-.35,2.41-.09.79-.14,1.57-.11,2.31.02.73.14,1.45.38,1.94.12.24.25.42.42.54.08.06.18.11.29.15.12.04.22.06.33.06.21,0,.46-.05.72-.2.26-.15.52-.36.77-.62.5-.52.94-1.17,1.31-1.87.76-1.4,1.31-2.95,1.73-4.53h0c.08-.32.4-.51.72-.42.3.08.48.37.43.67Z"/><path class="cls-1" d="M130.17,42.9c-.04.31-.32.53-.63.5h0c-1.81-.15-3.63-.11-5.33.32.1.16.2.33.29.51.07.14.14.29.2.44.06.16.12.32.17.49.1.33.16.66.19.99.06.66,0,1.31-.15,1.91-.15.6-.37,1.16-.66,1.68-.59,1.03-1.39,1.95-2.52,2.56-.56.3-1.23.52-1.95.52-.36,0-.73-.06-1.07-.17-.41-.13-.79-.37-1.07-.66-.57-.59-.8-1.27-.89-1.89-.09-.63-.05-1.23.06-1.8.23-1.14.77-2.15,1.47-2.99.48-.57,1.03-1.06,1.63-1.47-.26-.2-.54-.41-.82-.63-.38-.3-.79-.61-1.19-.98-.4-.37-.82-.79-1.19-1.32-.37-.52-.69-1.18-.83-1.91-.07-.36-.09-.73-.06-1.08.01-.18.03-.35.06-.52.01-.08.03-.18.06-.28.02-.1.05-.2.08-.29.13-.39.33-.77.59-1.09.26-.32.57-.58.89-.78.65-.4,1.33-.57,1.97-.61.65-.04,1.29.04,1.89.23.6.19,1.18.49,1.67.92.49.43.89.98,1.13,1.58.24.6.32,1.24.28,1.82-.03.52-.48.91-1,.88-.46-.03-.82-.38-.87-.83v-.03c-.09-.75-.43-1.3-.96-1.63-.52-.34-1.24-.48-1.85-.35-.3.06-.57.18-.72.32-.16.14-.2.26-.21.39,0,.02,0,.04,0,.06v.08c0,.07,0,.14,0,.2.01.13.04.24.07.35.07.22.2.43.4.68.4.49,1.08,1.04,1.82,1.62.65.52,1.37,1.07,2.06,1.79.18-.04.36-.09.53-.12,2.01-.4,4.02-.34,5.97-.06.32.05.54.34.5.66ZM122.06,46.51c-.02-.15-.07-.28-.12-.41-.02-.07-.05-.13-.08-.19-.04-.07-.07-.14-.11-.2-.13-.23-.31-.45-.52-.68-.58.41-1.09.89-1.5,1.45-.49.67-.82,1.43-.92,2.19-.05.38-.04.75.03,1.07.07.32.22.57.35.65.06.05.11.06.16.07.12.02.23.03.35.01.24-.03.51-.13.77-.31.53-.36,1.01-.99,1.3-1.66.29-.67.39-1.4.29-1.98Z"/><path class="cls-1" d="M146.74,42.89c-.29,1.69-.73,3.37-1.44,4.99-.36.81-.78,1.61-1.39,2.36-.31.37-.66.73-1.11,1.04-.44.31-1.01.55-1.64.6-.31.03-.63,0-.92-.05-.3-.06-.6-.15-.88-.3-.57-.29-1.02-.75-1.34-1.22-.32-.48-.52-.96-.68-1.44-.16-.48-.26-.95-.34-1.41,0,0,0-.01,0-.02-.07.22-.15.45-.23.67-.25.68-.54,1.35-.96,2.02-.21.34-.45.67-.74,1-.3.32-.66.65-1.13.9-.47.25-1.07.43-1.67.41-.15,0-.29-.02-.44-.04-.18-.03-.36-.08-.54-.14-.34-.13-.63-.32-.86-.52-.46-.4-.74-.83-.96-1.23-.22-.4-.37-.79-.5-1.18-.25-.77-.38-1.52-.47-2.26-.09-.74-.11-1.48-.09-2.22s.08-1.47.21-2.21c.12-.73.3-1.47.55-2.2.25-.73.59-1.46,1.06-2.16.48-.69,1.11-1.38,1.98-1.86.43-.23.92-.41,1.4-.49.48-.08,1.01-.09,1.55.03.54.12,1.07.38,1.48.74.42.36.73.82.91,1.29.19.48.26.98.23,1.49-.04.51-.21,1.03-.55,1.47-.31.4-.88.46-1.28.15-.25-.19-.37-.49-.35-.78l.03-.37c0-.13-.01-.29-.06-.45-.05-.16-.14-.32-.24-.44-.1-.12-.22-.21-.33-.25-.11-.04-.21-.05-.34-.05-.23,0-.64.13-.91.32-.29.2-.58.52-.84.95-.52.84-.86,1.99-1.06,3.14-.2,1.17-.27,2.39-.18,3.56.04.58.13,1.16.27,1.67.07.25.15.49.24.68.09.19.19.33.23.37.02.02.01.02-.02.01-.02,0-.03,0-.06,0,.02,0,.04.02.06.02.07.02.14.02.27-.02.26-.08.65-.42.99-.85.35-.43.67-.95.96-1.49.3-.55.57-1.12.83-1.71.52-1.18.97-2.43,1.4-3.66v-.02s.04-.08.07-.12c.23-.66.87-1.12,1.61-1.1.91.03,1.62.79,1.59,1.7,0,.07-.01.14-.02.21-.13.83-.26,1.62-.35,2.41-.09.79-.14,1.57-.11,2.31.02.73.14,1.45.38,1.94.12.24.25.42.42.54.08.06.18.11.29.15.12.04.22.06.33.06.21,0,.46-.05.72-.2.26-.15.52-.36.77-.62.5-.52.94-1.17,1.31-1.87.76-1.4,1.31-2.95,1.73-4.53h0c.08-.32.4-.51.72-.42.3.08.48.37.43.67Z"/><path class="cls-1" d="M171.61,42.9c-.11,1.02-.31,2.01-.57,2.99-.26.98-.56,1.94-.92,2.88-.36.95-.78,1.88-1.29,2.79-.26.45-.53.9-.86,1.34-.33.44-.69.87-1.17,1.27-.24.2-.51.39-.84.55-.32.16-.71.28-1.14.31-.11,0-.22,0-.32,0-.11,0-.22-.02-.3-.03-.18-.03-.37-.07-.56-.14-.38-.13-.76-.36-1.06-.65-.3-.29-.53-.62-.7-.94-.17-.32-.28-.64-.37-.95-.17-.61-.25-1.19-.28-1.74-.04-.56-.04-1.09-.02-1.62.02-.52.06-1.04.11-1.54.1-1.01.26-1.99.41-2.95.15-.96.33-1.91.47-2.83.08-.46.14-.91.18-1.36.05-.44.08-.87.07-1.27,0-.4-.05-.77-.13-1.03-.04-.13-.08-.23-.13-.3-.05-.07-.09-.13-.17-.18-.04-.02-.08-.05-.13-.07-.02-.01-.04-.03-.07-.03-.05-.02-.13-.02-.25.02-.24.07-.56.3-.85.58-.59.58-1.11,1.36-1.58,2.17-.46.81-.88,1.67-1.25,2.55-.37.88-.7,1.78-.99,2.69-.14.46-.27.92-.38,1.37-.11.46-.21.92-.23,1.34v.02c-.01.21-.13.39-.3.48,0,0-.01.01-.02.02-.26.17-.59.15-.82-.03-.28-.22-.53-.5-.71-.79-.19-.3-.32-.61-.43-.92-.2-.63-.28-1.24-.32-1.83-.07-1.19.04-2.3.12-3.36.02-.26.04-.52.06-.78.02-.25.03-.5.04-.74.02-.47-.02-.92-.09-1.14-.04-.11-.05-.15-.08-.19-.03-.04-.12-.09-.27-.12h-.12s0-.02,0-.02c0,0-.04,0-.09.03-.1.05-.24.17-.38.32-.28.31-.54.73-.77,1.17-.23.44-.44.92-.63,1.4-.38.97-.69,1.99-.95,3.02-.52,2.06-.88,4.18-.97,6.3.02.24-.07.49-.28.64-.21.16-.48.18-.7.09-.64-.26-1.19-.73-1.62-1.25-.43-.52-.76-1.1-1.02-1.68-.51-1.18-.76-2.39-.88-3.59-.12-1.2-.09-2.4.08-3.58.09-.59.21-1.18.39-1.76.18-.58.39-1.17.74-1.75.36-.62,1.16-.83,1.79-.47.45.26.68.75.64,1.24v.13c-.09.93-.19,1.97-.26,2.99-.08,1.02-.14,2.05-.16,3.06-.02,1.01.02,2.02.16,2.96.01.09.03.19.05.28.11-1.32.3-2.64.55-3.94.22-1.09.48-2.18.84-3.26.18-.54.38-1.08.62-1.61.25-.54.52-1.07.94-1.6.21-.26.46-.53.82-.77.18-.12.4-.22.66-.29.13-.03.27-.05.4-.06.11,0,.19,0,.29,0,.39.01.84.09,1.27.35.21.13.41.29.57.48.16.18.28.38.38.57.37.78.4,1.44.43,2.06.01.61-.04,1.19-.1,1.74l-.21,1.61c-.01.09-.02.18-.03.27.16-.55.33-1.1.51-1.65.33-.95.69-1.9,1.13-2.82.44-.93.93-1.85,1.66-2.73.37-.43.8-.88,1.45-1.22.33-.17.73-.29,1.17-.31.22-.01.44.01.66.05.19.04.37.1.56.18.37.15.73.4,1.01.68.29.29.5.61.66.93.32.64.45,1.25.54,1.82.17,1.15.14,2.21.07,3.24-.08,1.03-.2,2.02-.36,3l-.47,2.86c-.07.47-.15.93-.21,1.38-.06.45-.11.9-.14,1.32-.02.42-.03.83.02,1.18.04.35.13.6.21.72.04.06.08.11.15.16.04.02.08.04.14.06.03.01.05.02.06.02.01,0,.03,0,.04.01.12.04.4-.05.7-.25.3-.2.61-.49.9-.82.29-.33.56-.69.82-1.07.52-.76.98-1.59,1.39-2.44.41-.85.78-1.74,1.1-2.64.32-.9.59-1.82.77-2.74h0c.06-.32.37-.53.69-.47.3.06.5.34.47.64Z"/><path class="cls-1" d="M187.11,43.21c-.44.49-.93.94-1.45,1.35-.52.41-1.07.78-1.66,1.1-.91.5-1.89.88-2.93,1.11-.01.06-.02.12-.04.17-.16.67-.39,1.35-.72,2.01-.33.65-.77,1.3-1.39,1.84-.61.54-1.39.97-2.22,1.15-.41.09-.84.14-1.24.14-.4,0-.82-.03-1.24-.12-.84-.17-1.67-.59-2.33-1.18-.65-.59-1.14-1.32-1.45-2.06-.16-.37-.28-.75-.38-1.13-.09-.38-.15-.76-.19-1.13-.08-.75-.06-1.49.02-2.22.18-1.45.66-2.83,1.4-4.07.27-.45.58-.88.93-1.28,0-.02,0-.05,0-.07.03-.71.17-1.42.46-2.11.29-.68.77-1.37,1.51-1.79.18-.1.37-.19.57-.25.1-.04.19-.05.28-.07.09-.02.18-.04.28-.06.37-.06.77-.08,1.16-.03.79.1,1.51.49,2.05.98.55.49.96,1.07,1.29,1.68.33.6.59,1.23.79,1.86.41,1.27.63,2.58.72,3.9.04.68.04,1.37,0,2.07.67-.16,1.34-.4,1.99-.69.53-.25,1.05-.52,1.55-.85.5-.32.97-.69,1.42-1.07h0c.25-.22.62-.19.83.06.19.23.18.56-.01.78ZM178.8,46.93c-.1-.01-.19-.02-.29-.04-.09-.01-.19-.04-.29-.06l-.26-.06c-.68-.18-1.34-.45-1.96-.81-1.13-.66-2.07-1.64-2.71-2.76-.09.45-.15.91-.18,1.36-.04.52-.02,1.04.03,1.54.03.25.07.49.13.72.05.23.11.45.19.66.16.41.35.78.6,1.06.24.28.54.49.91.64.37.14.86.21,1.25.17.2-.02.4-.06.59-.13.19-.07.38-.17.55-.3.59-.42,1.08-1.15,1.43-1.98ZM179.21,39.44c-.16-.57-.37-1.11-.63-1.62-.27-.5-.59-.95-.98-1.3-.38-.35-.83-.55-1.29-.6-.23-.03-.47-.02-.71.04-.06,0-.12.03-.18.05-.06.02-.13.03-.17.05-.1.04-.19.08-.28.14-.34.22-.61.6-.78,1.06.06-.03.11-.07.16-.09.46-.24,1.04-.07,1.28.4.19.36.13.78-.12,1.06l-.04.04c-.52.59-.94,1.23-1.29,1.92.14.5.33.98.58,1.43.52.97,1.27,1.78,2.19,2.35.46.29.96.5,1.49.66l.2.06c.06.01.11.03.17.04.12.02.24.04.37.05.05,0,.09,0,.14,0,.16-.73.25-1.48.27-2.24.04-1.18-.09-2.38-.4-3.51Z"/><path class="cls-1" d="M198.1,42.9c-.04.31-.32.53-.63.5h0c-1.81-.15-3.63-.11-5.33.32.1.16.2.33.3.51.07.14.14.29.2.44.06.16.12.32.17.49.1.33.16.66.19.99.06.66,0,1.31-.15,1.91-.15.6-.37,1.16-.66,1.68-.59,1.03-1.39,1.95-2.52,2.56-.56.3-1.23.52-1.95.52-.36,0-.73-.06-1.07-.17-.41-.13-.79-.37-1.07-.66-.57-.59-.8-1.27-.89-1.89-.09-.63-.05-1.23.06-1.8.23-1.14.77-2.15,1.47-2.99.48-.57,1.03-1.06,1.63-1.47-.26-.2-.54-.41-.82-.63-.38-.3-.79-.61-1.19-.98-.4-.37-.82-.79-1.19-1.32-.37-.52-.69-1.18-.83-1.91-.07-.36-.09-.73-.06-1.08.01-.18.03-.35.06-.52.01-.08.03-.18.06-.28.02-.1.05-.2.08-.29.13-.39.33-.77.59-1.09.26-.32.57-.58.89-.78.65-.4,1.33-.57,1.97-.61.65-.04,1.29.04,1.89.23.6.19,1.18.49,1.67.92.49.43.89.98,1.13,1.58.24.6.32,1.24.28,1.82-.03.52-.48.91-1,.88-.46-.03-.82-.38-.87-.83v-.03c-.09-.75-.43-1.3-.96-1.63-.52-.34-1.24-.48-1.85-.35-.3.06-.57.18-.72.32-.16.14-.2.26-.21.39,0,.02,0,.04,0,.06v.08c0,.07,0,.14,0,.2.01.13.04.24.07.35.07.22.2.43.4.68.4.49,1.08,1.04,1.82,1.62.65.52,1.37,1.07,2.06,1.79.18-.04.36-.09.53-.12,2.01-.4,4.02-.34,5.97-.06.32.05.54.34.5.66ZM189.99,46.51c-.02-.15-.07-.28-.12-.41-.02-.07-.05-.13-.08-.19-.04-.07-.07-.14-.11-.2-.13-.23-.31-.45-.52-.68-.58.41-1.09.89-1.5,1.45-.49.67-.82,1.43-.92,2.19-.05.38-.04.75.03,1.07.07.32.22.57.35.65.06.05.11.06.16.07.12.02.23.03.35.01.24-.03.51-.13.77-.31.53-.36,1.01-.99,1.3-1.66.29-.67.39-1.4.29-1.98Z"/><path class="cls-1" d="M202.82,24.97h0c0,1.79-.12,3.55-.24,5.3-.13,1.75-.29,3.5-.39,5.25-.05.88-.1,1.75-.13,2.62-.03.87-.06,1.75-.06,2.62-.02,1.75.03,3.48.16,5.21v.02c.04.52-.35.97-.87,1.01-.45.03-.84-.25-.97-.66-.56-1.78-.86-3.62-1.06-5.45-.09-.92-.16-1.83-.2-2.75-.03-.92-.05-1.83-.05-2.74.02-1.83.11-3.65.34-5.46.23-1.81.58-3.61,1.16-5.35.21-.62.88-.96,1.5-.75.5.17.81.63.81,1.13ZM202.77,49.92c0,.92-.6,1.66-1.34,1.66s-1.34-.74-1.34-1.66.6-1.66,1.34-1.66,1.34.74,1.34,1.66Z"/><path class="cls-1" d="M175.5,22.93c1.61-2.89,1.86-5.75.62-8.7-1.58-3.74-5.61-6.09-9.57-5.62-4.29.52-7.61,3.61-8.31,7.76-1.02,6.02,3.82,11.38,9.91,10.97,1.94-.13,3.67-.82,5.19-2.03.18-.15.3-.14.5-.03.65.34,1.32.65,2,.97-.7.72-1.51,1.34-2.39,1.86-7.39,4.37-16.89-.5-17.67-9.05-.64-7.06,5-13.06,12.1-12.85,5.71.17,10.55,4.56,11.27,10.22.31,2.44-.1,4.75-1.21,6.95-.11.22-.23.3-.47.22-.65-.22-1.3-.44-1.98-.66Z"/><path class="cls-1" d="M171.56,9.98c.55.36,1.08.71,1.63,1.07-3.41,3.76-2.31,9.58,1.78,12.04,3.72,2.24,8.58,1.06,10.82-2.66,2.37-3.93.93-9.01-3.25-11.15.62-.42,1.21-.83,1.8-1.23,3.07,1.89,5.18,5.8,4.41,10.05-.76,4.17-4.1,7.41-8.26,8-4.21.6-8.31-1.52-10.22-5.28-1.98-3.89-1.03-8.22,1.29-10.85Z"/><path class="cls-1" d="M174.29,7.73c1.24-.68,2.54-1.07,3.93-1.2.2-.02.31.03.39.22.26.56.55,1.12.84,1.71-.49.03-.96.02-1.41.1-.63.12-1.25.32-1.88.47-.1.03-.26.03-.33-.02-.52-.4-1.02-.83-1.55-1.27Z"/><path class="cls-1" d="M181.49,8.78c.87-1.45,1.73-2.91,2.6-4.35.04-.06.17-.13.24-.11.9.23,1.8.47,2.76.72-1.89,1.29-3.73,2.54-5.56,3.79-.02-.02-.03-.03-.05-.05Z"/><path class="cls-1" d="M177.56,2.55c.97.25,1.87.48,2.76.73.08.02.16.18.16.28.05,1.67.09,3.33.08,5.03-.99-1.99-1.98-3.97-3.01-6.04Z"/><path class="cls-1" d="M180.89,3.41c.98.26,1.91.5,2.88.75-.82,1.18-1.61,2.33-2.47,3.56-.14-1.48-.28-2.87-.42-4.31Z"/><path class="cls-1" d="M180.4,2.91c-.97-.25-1.87-.49-2.8-.73.71-.68,1.38-1.32,2.05-1.97.23.83.48,1.73.74,2.7Z"/><path class="cls-1" d="M187.27,4.7c-.97-.25-1.86-.49-2.77-.72.69-.66,1.37-1.31,2.04-1.94.22.81.47,1.71.73,2.67Z"/><path class="cls-1" d="M183.41.89c.98.26,1.87.49,2.8.73-.7.67-1.38,1.32-2.06,1.97-.23-.83-.48-1.73-.74-2.7Z"/><path class="cls-1" d="M183.09,1.11c.23.84.48,1.74.74,2.69-.96-.25-1.86-.48-2.78-.72.7-.67,1.37-1.32,2.05-1.97Z"/><path class="cls-1" d="M182.8.73c-.72.69-1.39,1.33-2.08,1.99-.24-.86-.49-1.76-.75-2.73.95.25,1.85.48,2.83.73Z"/></svg>