<?xml version="1.0" encoding="UTF-8"?>
<svg id="Capa_1" data-name="Capa 1" xmlns="http://www.w3.org/2000/svg" viewBox="0 0 279.75 38.13">
  <defs>
    <style>
      .cls-1 {
        fill: #6c5849;
        stroke-width: 0px;
      }
    </style>
  </defs>
  <path class="cls-1" d="M46.49,1.94c-1.09.45-2.1,1.05-3.01,1.79-.91.74-1.73,1.59-2.46,2.52-.73.94-1.38,1.96-1.94,3.05-.56,1.09-1.05,2.2-1.47,3.32-.34.9-.66,1.93-.97,3.09-.31,1.16-.57,2.36-.78,3.6s-.34,2.46-.4,3.68c-.06,1.22.03,2.35.25,3.39.11.48.27.95.48,1.43.21.48.51.83.9,1.05.34.17.44.35.32.55-.13.2-.43.29-.9.29-1.46.08-2.62-.22-3.49-.93s-1.51-1.61-1.91-2.71c-.41-1.11-.61-2.34-.61-3.68s.14-2.64.42-3.87c.5-2.22,1.34-4.36,2.5-6.42,1.16-2.06,2.53-3.98,4.1-5.74-1.57,1.12-3.04,2.41-4.42,3.87-1.38,1.46-2.61,3.04-3.7,4.73-1.09,1.7-2.03,3.5-2.8,5.41-.77,1.91-1.37,3.87-1.79,5.89-.06.22-.15.38-.27.46-.13.08-.27.1-.42.06-.15-.04-.29-.13-.42-.25-.13-.13-.23-.27-.32-.44-1.24-2.44-1.94-5.04-2.13-7.81-.18-2.76,0-5.56.53-8.4-1.09,2.58-2.01,4.75-2.76,6.5-.74,1.75-1.4,3.23-1.98,4.44-.58,1.21-1.1,2.21-1.58,3.01-.48.8-.97,1.54-1.47,2.21-.48.62-.99,1.21-1.54,1.79-.55.58-1.15,1.07-1.81,1.49-.66.42-1.35.76-2.08,1.01-.73.25-1.5.38-2.31.38-1.26-.03-2.32-.31-3.18-.84-.86-.53-1.52-1.23-2-2.08-.48-.86-.79-1.82-.95-2.88-.15-1.07-.18-2.15-.06-3.26.11-1.11.34-2.18.69-3.22.35-1.04.79-1.95,1.33-2.74.42-.62.92-1.21,1.49-1.77.57-.56,1.2-1.05,1.87-1.47-.08-.79-.1-1.57-.04-2.36.06-.79.15-1.52.29-2.19.28-1.35.76-2.62,1.45-3.83.69-1.21,1.63-2.17,2.84-2.9,1.35-.79,2.75-1.18,4.21-1.18s2.9.21,4.33.63c.9.28,1.8.56,2.71.84.91.28,1.86.48,2.84.59.48-.34,1-.62,1.58-.86.57-.24,1.14-.36,1.7-.36.34,0,.6.06.8.19.2.13.29.28.29.46s-.1.36-.29.55c-.2.18-.49.33-.88.44-.39.31-.71.69-.95,1.16-.24.46-.43.95-.57,1.45-.14.5-.25,1.02-.34,1.56-.08.53-.15,1.02-.21,1.47-.17,1.52-.23,3.03-.19,4.54s.22,3.06.53,4.63c.45-.9.93-1.75,1.43-2.57.5-.81,1.04-1.58,1.6-2.31,1.46-1.99,3.13-3.81,5.01-5.45,1.88-1.64,3.96-2.95,6.23-3.93.42-.17.9-.34,1.45-.51.55-.17,1.12-.33,1.7-.48.59-.15,1.18-.28,1.77-.38.59-.1,1.12-.17,1.6-.23.22-.06.36,0,.4.15.04.15-.05.27-.27.36ZM21.2,5.22c.2-.31.41-.62.65-.95.24-.32.51-.64.82-.95-1.38,0-2.75-.06-4.12-.19-1.38-.13-2.79-.05-4.25.23-.93.2-1.86.55-2.8,1.07-.94.52-1.79,1.16-2.55,1.92s-1.35,1.6-1.77,2.52-.56,1.89-.42,2.9c1.04-.39,2.05-.57,3.03-.55.65.03,1.28.18,1.89.44.62.27,1.15.65,1.6,1.16.14.17.22.32.25.44.03.13-.11.18-.42.15-.59-.08-1.21-.08-1.85,0-1.26.14-2.4.45-3.41.93.56.67,1.3,1.12,2.21,1.35.91.23,1.83.27,2.76.13.11-.03.16,0,.15.08s-.05.18-.1.29c-.06.11-.17.28-.34.51-.39.42-.91.73-1.56.93-.67.17-1.36.11-2.06-.17-.7-.28-1.29-.66-1.77-1.14-.17-.17-.32-.34-.44-.53-.13-.18-.26-.37-.4-.57-1.32.87-2.37,1.98-3.16,3.32-.39.65-.74,1.4-1.05,2.27-.31.87-.5,1.75-.57,2.65-.07.9,0,1.77.23,2.61s.67,1.56,1.35,2.15c.45.39.95.67,1.49.82.55.15,1.11.2,1.68.15.57-.06,1.14-.2,1.68-.42.55-.22,1.03-.52,1.45-.88,1.07-.9,1.96-1.97,2.67-3.22.72-1.25,1.35-2.49,1.92-3.72.59-1.29,1.14-2.62,1.66-3.98.52-1.36,1.05-2.71,1.6-4.06.55-1.35,1.14-2.67,1.77-3.96.63-1.29,1.35-2.54,2.17-3.75Z"/>
  <path class="cls-1" d="M59.37,21.76c.08-.22.2-.37.36-.44.15-.07.29-.08.4-.04.11.04.2.14.27.29.07.16.06.34-.02.57-.79,2.1-1.86,3.79-3.22,5.05-1.36,1.26-2.8,1.89-4.31,1.89-1.07,0-1.89-.26-2.48-.78-.59-.52-.91-1.34-.97-2.46-.65.81-1.42,1.56-2.31,2.23-.9.67-1.94,1.01-3.11,1.01s-2.2-.42-2.88-1.26-1.09-1.89-1.2-3.16c-.11-1.26.06-2.63.5-4.1.45-1.47,1.18-2.84,2.19-4.1,1.01-1.26,2.31-2.31,3.89-3.16,1.58-.84,3.47-1.26,5.66-1.26,1.52,0,2.7.2,3.56.61.86.41,1.55,1.03,2.08,1.87-.56,1.68-1.08,3.2-1.56,4.54-.2.59-.39,1.17-.59,1.75-.2.58-.38,1.1-.55,1.58-.17.48-.32.89-.44,1.24-.13.35-.2.58-.23.69-.36,1.01-.5,1.73-.4,2.17.1.43.33.65.69.65.22,0,.53-.09.9-.27.38-.18.78-.48,1.2-.9s.86-.97,1.3-1.66c.45-.69.87-1.54,1.26-2.55ZM52.93,13.93c-.06-.14-.18-.29-.38-.46-.2-.17-.49-.25-.88-.25-.81,0-1.59.34-2.34,1.03-.74.69-1.42,1.55-2.04,2.59-.62,1.04-1.14,2.17-1.58,3.39-.44,1.22-.74,2.35-.91,3.39-.17,1.04-.2,1.9-.08,2.59.11.69.42,1.03.93,1.03.34,0,.67-.1.99-.29.32-.2.63-.46.93-.8s.58-.72.86-1.16c.28-.43.53-.88.76-1.33.53-1.04,1.05-2.23,1.56-3.58l2.19-6.14Z"/>
  <path class="cls-1" d="M72.2,21.76c.08-.22.2-.37.34-.44.14-.07.27-.08.4-.04.13.04.22.14.27.29.06.16.04.34-.04.57-.79,2.1-1.86,3.79-3.22,5.05-1.36,1.26-2.8,1.89-4.31,1.89-.76,0-1.4-.14-1.94-.42-.53-.28-.93-.72-1.18-1.3s-.35-1.34-.29-2.25c.06-.91.29-1.98.72-3.22l1.85-5.3c.17-.48.26-.97.27-1.47.01-.5-.09-.95-.32-1.35-.11-.2-.23-.37-.36-.53-.13-.15-.25-.3-.36-.44l-.42-.42c-.14.5-.34,1.16-.59,1.96-.25.8-.53,1.66-.82,2.59-.29.93-.6,1.85-.93,2.78-.32.93-.62,1.74-.9,2.44-.14.34-.29.57-.46.69-.17.13-.31.16-.42.11-.11-.06-.19-.19-.23-.4-.04-.21,0-.47.1-.78.67-1.85,1.24-3.49,1.7-4.9.46-1.42.83-2.62,1.12-3.6.31-1.12.56-2.1.76-2.95.76.53,1.49,1.05,2.19,1.56.59.48,1.19.98,1.81,1.52.62.53,1.11,1.07,1.47,1.6.5.73.79,1.42.86,2.06.07.65-.05,1.4-.36,2.27l-1.73,5.01c-.37,1.01-.5,1.73-.4,2.17.1.43.34.65.74.65.22,0,.52-.09.88-.27.36-.18.76-.48,1.18-.9.42-.42.86-.97,1.33-1.66.46-.69.89-1.54,1.28-2.55Z"/>
  <path class="cls-1" d="M81.46,21.76c.08-.22.2-.37.34-.44.14-.07.27-.08.4-.04.13.04.22.14.27.29.06.16.04.34-.04.57-.79,2.1-1.85,3.79-3.2,5.05-1.35,1.26-2.79,1.89-4.33,1.89-.76,0-1.4-.14-1.94-.42-.53-.28-.93-.72-1.18-1.3s-.35-1.34-.29-2.25c.06-.91.29-1.98.72-3.22l2.44-7.11c.31-.81.81-1.47,1.49-1.98.69-.5,1.47-.76,2.34-.76h2.23c-.67,1.91-1.29,3.69-1.85,5.35-.25.7-.5,1.41-.74,2.13-.24.71-.47,1.39-.69,2.02-.23.63-.42,1.19-.59,1.68-.17.49-.29.86-.38,1.12-.36,1.01-.5,1.73-.4,2.17.1.43.34.65.74.65.22,0,.52-.09.88-.27.36-.18.76-.48,1.2-.9.43-.42.88-.97,1.33-1.66.45-.69.87-1.54,1.26-2.55ZM81.72,9.72c-.56.59-1.19.91-1.89.97-.7.06-1.29-.15-1.77-.63-.48-.5-.7-1.14-.67-1.89.03-.76.31-1.43.84-2.02.56-.59,1.19-.91,1.89-.97.7-.06,1.29.15,1.77.63.48.5.7,1.14.67,1.89-.03.76-.31,1.43-.84,2.02Z"/>
  <path class="cls-1" d="M92.49,11.62c1.43,0,2.52.26,3.26.78.74.52,1.18,1.17,1.3,1.95.13.78-.04,1.64-.48,2.56-.45.92-1.14,1.79-2.06,2.6s-2.08,1.51-3.47,2.1c-1.39.59-2.95.94-4.69,1.05.06.67.17,1.31.36,1.91.18.6.46,1.13.82,1.57.36.45.81.8,1.35,1.07.53.27,1.16.4,1.89.4.62,0,1.27-.12,1.96-.36.69-.24,1.37-.6,2.04-1.09s1.32-1.1,1.94-1.83c.62-.73,1.16-1.6,1.64-2.61.11-.22.24-.37.38-.44.14-.07.27-.08.4-.04.13.04.21.14.25.29.04.15.02.34-.06.57-.45,1.07-1.02,2.04-1.73,2.92-.7.88-1.51,1.64-2.42,2.28-.91.64-1.9,1.13-2.97,1.47-1.07.35-2.17.52-3.32.52-2.05,0-3.66-.43-4.84-1.3-1.18-.87-1.96-1.96-2.34-3.28-.38-1.32-.4-2.74-.06-4.25.34-1.51.98-2.93,1.94-4.25.95-1.32,2.19-2.41,3.7-3.28,1.52-.87,3.25-1.3,5.22-1.3ZM91.9,12.88c-.76,0-1.47.26-2.12.78-.66.52-1.23,1.19-1.73,2.02-.49.83-.89,1.75-1.2,2.78-.31,1.02-.48,2.04-.5,3.05.93-.08,1.8-.36,2.61-.84.81-.48,1.52-1.03,2.13-1.66.6-.63,1.1-1.3,1.49-2.02.39-.72.64-1.38.74-2,.1-.62.03-1.12-.19-1.52-.23-.39-.63-.59-1.22-.59Z"/>
  <path class="cls-1" d="M110.5,1.26c-1.43,4.15-2.71,7.88-3.83,11.19-.48,1.4-.95,2.79-1.43,4.17-.48,1.37-.9,2.62-1.28,3.73-.38,1.11-.69,2.02-.95,2.74-.25.71-.39,1.13-.42,1.24-.36,1.01-.5,1.73-.4,2.17.1.43.33.65.69.65.22,0,.53-.09.9-.27.38-.18.78-.48,1.2-.9s.86-.97,1.3-1.66c.45-.69.87-1.54,1.26-2.55.08-.22.2-.37.34-.44.14-.07.27-.08.4-.04.13.04.22.14.27.29.06.16.04.34-.04.57-.79,2.1-1.85,3.79-3.2,5.05-1.35,1.26-2.79,1.89-4.33,1.89-.76,0-1.4-.14-1.94-.42-.53-.28-.93-.72-1.18-1.3s-.35-1.34-.29-2.25c.06-.91.29-1.98.72-3.22l5.77-16.67c.48-1.43,1.12-2.45,1.94-3.05.81-.6,1.98-.91,3.49-.91h1.01Z"/>
  <path class="cls-1" d="M135.71,12.04c-.67,1.99-1.35,3.97-2.02,5.93-.56,1.68-1.16,3.44-1.79,5.28-.63,1.84-1.19,3.47-1.66,4.9.81-.17,1.58-.46,2.32-.88.73-.42,1.39-.92,1.98-1.49s1.12-1.21,1.58-1.89.85-1.4,1.16-2.13c.08-.22.2-.37.36-.44.15-.07.29-.08.4-.04s.2.14.25.29c.06.16.04.34-.04.57-.28.76-.66,1.52-1.14,2.29-.48.77-1.07,1.49-1.77,2.17-.7.67-1.52,1.27-2.44,1.79-.93.52-1.98.89-3.16,1.12-.2.62-.36,1.12-.48,1.49-.13.38-.2.6-.23.65-.93,2.33-2.13,3.99-3.62,4.99-1.49,1-3.27,1.49-5.34,1.49-1.54,0-2.71-.39-3.49-1.16-.79-.77-1.2-1.68-1.24-2.71-.04-1.04.28-2.09.97-3.16.69-1.07,1.73-1.89,3.14-2.48.2-.08.38-.16.57-.23.18-.07.37-.13.57-.19-1.15-.45-1.85-1.38-2.1-2.8-.25-1.42-.01-3.36.71-5.83.28-.93.63-1.84,1.05-2.76.42-.91.9-1.72,1.45-2.42.55-.7,1.16-1.27,1.85-1.7.69-.43,1.45-.65,2.29-.65h1.26c-.84,1.74-1.62,3.5-2.34,5.28-.71,1.78-1.28,3.41-1.7,4.88-.42,1.47-.65,2.67-.69,3.6-.04.93.17,1.39.65,1.39.56,0,1.1-.26,1.62-.78s1.02-1.16,1.49-1.92c.59-.98,1.02-1.8,1.28-2.46.27-.66.51-1.31.74-1.96.11-.34.25-.75.42-1.24.17-.49.34-1,.53-1.52.18-.52.35-1.01.5-1.47s.27-.82.36-1.07c.31-.81.81-1.47,1.49-1.98.69-.5,1.47-.76,2.33-.76h1.94ZM120.05,36.95c.62,0,1.19-.23,1.71-.69.52-.46,1.01-1.09,1.47-1.89.46-.8.89-1.73,1.28-2.78s.79-2.17,1.18-3.35c-.95,0-1.83.22-2.63.65-.8.43-1.49.97-2.06,1.62-.58.65-1.05,1.34-1.41,2.08-.37.74-.59,1.44-.67,2.08-.08.64-.04,1.18.13,1.62.17.43.5.65,1.01.65Z"/>
  <path class="cls-1" d="M170.64,17.59c-.31-.03-.63-.06-.97-.11-.34-.04-.66-.1-.97-.19-.56.14-1,.46-1.3.95-.31.49-.59.97-.84,1.45-.28.56-.53,1.14-.76,1.75-.23.6-.48,1.19-.76,1.75-.48,1.07-1.05,2.09-1.7,3.07-.66.98-1.44,1.85-2.34,2.61-1.09.9-2.35,1.51-3.77,1.83-1.42.32-2.8.2-4.15-.36-1.35-.56-2.41-1.45-3.18-2.67s-1.24-2.53-1.41-3.93c-.17-1.26-.11-2.53.17-3.81.28-1.28.69-2.49,1.22-3.64.59-1.26,1.38-2.39,2.38-3.39,1-1,2.17-1.7,3.51-2.12,1.46-.45,2.86-.39,4.21.17.28.11.55.27.8.48.25.21.47.43.65.65s.32.45.4.67c.08.22.11.41.08.55-.03.08-.11.12-.23.11s-.29-.04-.48-.08-.41-.09-.65-.15-.48-.1-.74-.13c-1.09-.14-2.15-.05-3.18.27-1.02.32-1.99.84-2.88,1.54-1.12.81-2.03,1.82-2.71,3.03-.69,1.21-1.12,2.51-1.28,3.91-.08.73-.08,1.51,0,2.34.08.83.29,1.59.63,2.29.34.7.8,1.3,1.39,1.81.59.5,1.33.8,2.23.88.9.08,1.67-.11,2.31-.59s1.18-1.07,1.6-1.77c.56-.9,1.07-1.82,1.51-2.76.45-.94.91-1.89,1.39-2.84.31-.65.68-1.29,1.12-1.94.44-.65.93-1.18,1.49-1.6.39-.31.83-.55,1.3-.74.48-.18.97-.33,1.47-.44-.84-.56-1.47-1.25-1.89-2.08-.42-.83-.73-1.69-.93-2.59-1.18-.45-2.2-1.13-3.05-2.04-.86-.91-1.37-2.04-1.54-3.39-.06-.45-.04-.91.04-1.37s.23-.9.44-1.3c.21-.41.49-.77.84-1.09.35-.32.76-.55,1.24-.69.03,0,.1-.02.23-.06.13-.04.27-.07.42-.08.15-.01.27,0,.36.02.08.03.1.1.04.21-.22.42-.42.86-.59,1.33-.17.46-.29.93-.36,1.41-.07.48-.06.95.02,1.43s.27.94.55,1.39c.34.53.77,1.02,1.3,1.47.14-1.37.58-2.6,1.33-3.68.74-1.08,1.7-2.03,2.88-2.84,2.08-1.49,4.39-2.12,6.94-1.89.56.06,1.12.17,1.68.34s1.09.41,1.58.72c.49.31.92.68,1.28,1.12.36.44.62.95.76,1.54.22.98.11,1.88-.36,2.69-.46.81-1.06,1.52-1.79,2.1-1.52,1.35-3.21,2.29-5.09,2.82-1.88.53-3.87.73-5.98.59-.03.28-.03.6,0,.97.03.36.1.72.21,1.07.11.35.28.65.5.9s.52.41.88.46c.22-.08.52-.16.88-.23.36-.07.74-.11,1.12-.11s.74.04,1.07.13.59.24.76.46c.31.39.29.74-.04,1.03-.34.29-.79.43-1.35.4ZM169.84,6.1c-1.32,1.26-2.27,2.79-2.86,4.59,1.88.48,3.77.47,5.68-.02,1.91-.49,3.54-1.44,4.88-2.84.39-.45.72-.97.99-1.58.27-.6.25-1.2-.06-1.79-.2-.39-.46-.69-.78-.9s-.69-.35-1.09-.42c-.41-.07-.81-.08-1.22-.04-.41.04-.79.12-1.16.23-.81.25-1.59.63-2.31,1.14-.73.5-1.42,1.05-2.06,1.64Z"/>
  <path class="cls-1" d="M184.7,11.62c1.43,0,2.52.26,3.26.78.74.52,1.18,1.17,1.3,1.95.13.78-.04,1.64-.48,2.56-.45.92-1.14,1.79-2.06,2.6s-2.08,1.51-3.47,2.1c-1.39.59-2.95.94-4.69,1.05.06.67.17,1.31.36,1.91s.46,1.13.82,1.57c.36.45.81.8,1.35,1.07.53.27,1.16.4,1.89.4.62,0,1.27-.12,1.96-.36.69-.24,1.37-.6,2.04-1.09.67-.49,1.32-1.1,1.94-1.83.62-.73,1.16-1.6,1.64-2.61.11-.22.24-.37.38-.44s.27-.08.4-.04c.13.04.21.14.25.29.04.15.02.34-.06.57-.45,1.07-1.03,2.04-1.73,2.92-.7.88-1.51,1.64-2.42,2.28-.91.64-1.9,1.13-2.97,1.47-1.07.35-2.17.52-3.32.52-2.05,0-3.66-.43-4.84-1.3-1.18-.87-1.96-1.96-2.34-3.28-.38-1.32-.4-2.74-.06-4.25.34-1.51.98-2.93,1.94-4.25.95-1.32,2.19-2.41,3.7-3.28,1.52-.87,3.25-1.3,5.22-1.3ZM184.11,12.88c-.76,0-1.47.26-2.13.78-.66.52-1.23,1.19-1.73,2.02-.49.83-.89,1.75-1.2,2.78-.31,1.02-.48,2.04-.5,3.05.93-.08,1.79-.36,2.61-.84.81-.48,1.52-1.03,2.12-1.66.6-.63,1.1-1.3,1.49-2.02.39-.72.64-1.38.74-2,.1-.62.04-1.12-.19-1.52-.22-.39-.63-.59-1.22-.59Z"/>
  <path class="cls-1" d="M209.82,21.76c.08-.22.2-.37.36-.44s.29-.08.42-.04.22.14.27.29c.06.16.04.34-.04.57-.79,2.1-1.86,3.79-3.22,5.05-1.36,1.26-2.8,1.89-4.31,1.89-1.04,0-1.86-.25-2.46-.76-.6-.5-.93-1.3-.99-2.4v-.08c-.65.81-1.42,1.56-2.31,2.23-.9.67-1.94,1.01-3.11,1.01-1.24,0-2.2-.42-2.88-1.26-.69-.84-1.09-1.89-1.2-3.16s.05-2.63.48-4.1,1.16-2.84,2.19-4.1c1.02-1.26,2.33-2.31,3.91-3.16,1.58-.84,3.46-1.26,5.62-1.26.28,0,.53,0,.76.02s.45.04.67.06l2.4-6.9c.48-1.43,1.12-2.45,1.92-3.05.8-.6,1.97-.91,3.51-.91h1.01c-1.46,4.15-2.75,7.88-3.87,11.19-.48,1.4-.95,2.79-1.43,4.17-.48,1.37-.91,2.62-1.28,3.73s-.69,2.02-.95,2.74c-.25.71-.39,1.13-.42,1.24-.36,1.01-.5,1.73-.4,2.17.1.43.34.65.74.65.22,0,.52-.09.88-.27.36-.18.76-.48,1.18-.9s.86-.97,1.3-1.66c.45-.69.87-1.54,1.26-2.55ZM196.1,27.23c.34,0,.67-.1.99-.29s.64-.46.95-.8.6-.72.86-1.16c.27-.43.53-.88.78-1.33.53-1.04,1.05-2.23,1.56-3.58l1.98-5.85c-.06-.14-.18-.29-.36-.46s-.47-.25-.86-.25c-.81,0-1.59.34-2.34,1.01s-1.42,1.52-2.02,2.55c-.6,1.02-1.12,2.12-1.54,3.3s-.71,2.28-.86,3.3c-.15,1.02-.18,1.87-.06,2.55.11.67.42,1.01.93,1.01Z"/>
  <path class="cls-1" d="M220.85,11.62c1.43,0,2.52.26,3.26.78.74.52,1.18,1.17,1.3,1.95.13.78-.04,1.64-.48,2.56-.45.92-1.14,1.79-2.06,2.6s-2.08,1.51-3.47,2.1c-1.39.59-2.95.94-4.69,1.05.06.67.17,1.31.36,1.91s.46,1.13.82,1.57c.36.45.81.8,1.35,1.07.53.27,1.16.4,1.89.4.62,0,1.27-.12,1.96-.36.69-.24,1.37-.6,2.04-1.09.67-.49,1.32-1.1,1.94-1.83.62-.73,1.16-1.6,1.64-2.61.11-.22.24-.37.38-.44s.27-.08.4-.04c.13.04.21.14.25.29.04.15.02.34-.06.57-.45,1.07-1.03,2.04-1.73,2.92-.7.88-1.51,1.64-2.42,2.28-.91.64-1.9,1.13-2.97,1.47-1.07.35-2.17.52-3.32.52-2.05,0-3.66-.43-4.84-1.3-1.18-.87-1.96-1.96-2.34-3.28-.38-1.32-.4-2.74-.06-4.25.34-1.51.98-2.93,1.94-4.25.95-1.32,2.19-2.41,3.7-3.28,1.52-.87,3.25-1.3,5.22-1.3ZM220.26,12.88c-.76,0-1.47.26-2.13.78-.66.52-1.23,1.19-1.73,2.02-.49.83-.89,1.75-1.2,2.78-.31,1.02-.48,2.04-.5,3.05.93-.08,1.79-.36,2.61-.84.81-.48,1.52-1.03,2.12-1.66.6-.63,1.1-1.3,1.49-2.02.39-.72.64-1.38.74-2,.1-.62.04-1.12-.19-1.52-.22-.39-.63-.59-1.22-.59Z"/>
  <path class="cls-1" d="M239.53,21.76c.08-.22.2-.37.34-.44.14-.07.27-.08.4-.04.13.04.22.14.27.29.06.16.04.34-.04.57-.79,2.1-1.86,3.79-3.22,5.05-1.36,1.26-2.8,1.89-4.31,1.89-.76,0-1.4-.14-1.94-.42-.53-.28-.93-.72-1.18-1.3-.25-.59-.35-1.34-.29-2.25.06-.91.29-1.98.72-3.22l1.85-5.3c.17-.48.26-.97.27-1.47.01-.5-.09-.95-.32-1.35-.11-.2-.23-.37-.36-.53-.13-.15-.25-.3-.36-.44l-.42-.42c-.14.5-.34,1.16-.59,1.96-.25.8-.53,1.66-.82,2.59-.29.93-.6,1.85-.93,2.78-.32.93-.62,1.74-.91,2.44-.14.34-.29.57-.46.69-.17.13-.31.16-.42.11-.11-.06-.19-.19-.23-.4-.04-.21,0-.47.11-.78.67-1.85,1.24-3.49,1.7-4.9.46-1.42.83-2.62,1.12-3.6.31-1.12.56-2.1.76-2.95.76.53,1.49,1.05,2.19,1.56.59.48,1.19.98,1.81,1.52.62.53,1.11,1.07,1.47,1.6.5.73.79,1.42.86,2.06.07.65-.05,1.4-.36,2.27l-1.73,5.01c-.37,1.01-.5,1.73-.4,2.17.1.43.34.65.74.65.22,0,.52-.09.88-.27.36-.18.76-.48,1.18-.9s.86-.97,1.33-1.66.89-1.54,1.28-2.55Z"/>
  <path class="cls-1" d="M248.79,21.76c.08-.22.2-.37.34-.44.14-.07.27-.08.4-.04s.22.14.27.29c.06.16.04.34-.04.57-.79,2.1-1.85,3.79-3.2,5.05-1.35,1.26-2.79,1.89-4.33,1.89-.76,0-1.4-.14-1.94-.42-.53-.28-.93-.72-1.18-1.3s-.35-1.34-.29-2.25c.06-.91.29-1.98.72-3.22l2.44-7.11c.31-.81.81-1.47,1.49-1.98s1.47-.76,2.34-.76h2.23c-.67,1.91-1.29,3.69-1.85,5.35-.25.7-.5,1.41-.74,2.13-.24.71-.47,1.39-.69,2.02-.22.63-.42,1.19-.59,1.68-.17.49-.29.86-.38,1.12-.37,1.01-.5,1.73-.4,2.17.1.43.34.65.74.65.22,0,.52-.09.88-.27.36-.18.76-.48,1.2-.9.43-.42.88-.97,1.33-1.66.45-.69.87-1.54,1.26-2.55ZM249.04,9.72c-.56.59-1.19.91-1.89.97-.7.06-1.29-.15-1.77-.63-.48-.5-.7-1.14-.67-1.89.03-.76.31-1.43.84-2.02.56-.59,1.19-.91,1.89-.97.7-.06,1.29.15,1.77.63.48.5.7,1.14.67,1.89-.03.76-.31,1.43-.84,2.02Z"/>
  <path class="cls-1" d="M260.66,14.1c-.34-.79-.91-1.18-1.73-1.18-.7,0-1.37.37-2,1.09-.63.73-1.19,1.64-1.68,2.74-.49,1.09-.88,2.28-1.18,3.56-.29,1.28-.44,2.46-.44,3.56s.15,2.01.46,2.74c.31.73.84,1.09,1.6,1.09,1.29,0,2.5-.48,3.64-1.45,1.14-.97,2.2-2.46,3.18-4.48.11-.2.24-.33.38-.4.14-.07.27-.08.4-.04.13.04.22.13.27.27.06.14.04.32-.04.55-.5,1.24-1.09,2.3-1.75,3.2-.66.9-1.37,1.64-2.12,2.23-.76.59-1.54,1.03-2.36,1.3-.81.28-1.61.42-2.4.42-1.85,0-3.27-.43-4.25-1.3-.98-.87-1.6-1.96-1.85-3.28-.25-1.32-.16-2.74.27-4.27s1.13-2.95,2.08-4.27c.95-1.32,2.15-2.41,3.58-3.28,1.43-.87,3.03-1.3,4.8-1.3.73,0,1.34.13,1.83.38.49.25.85.59,1.07,1.01.2.34.25.65.15.95-.1.29-.27.52-.5.67-.24.15-.5.2-.78.15s-.49-.27-.63-.63Z"/>
  <path class="cls-1" d="M274,11.91c1.82.14,3.19.68,4.1,1.62.91.94,1.44,2.08,1.6,3.41.15,1.33-.03,2.75-.55,4.25-.52,1.5-1.3,2.87-2.34,4.1-1.04,1.24-2.31,2.24-3.81,3.01s-3.15,1.09-4.94.95c-1.8-.11-3.14-.64-4.04-1.6-.9-.95-1.43-2.1-1.6-3.43-.17-1.33,0-2.75.53-4.25.52-1.5,1.29-2.87,2.31-4.1,1.02-1.23,2.29-2.24,3.79-3.01,1.5-.77,3.15-1.09,4.95-.95ZM269.83,27.99c.76-.08,1.44-.51,2.06-1.28.62-.77,1.14-1.71,1.56-2.82s.74-2.3.95-3.58c.21-1.28.28-2.45.21-3.53-.07-1.08-.3-1.96-.69-2.65-.39-.69-.97-1-1.73-.95s-1.45.47-2.06,1.24c-.62.77-1.14,1.72-1.56,2.84-.42,1.12-.74,2.32-.95,3.6-.21,1.28-.27,2.46-.19,3.54s.32,1.96.69,2.65.95,1,1.71.95Z"/>
</svg>